<svg width="123" height="32" viewBox="0 0 123 32" fill="none" xmlns="http://www.w3.org/2000/svg">
<path fill-rule="evenodd" clip-rule="evenodd" d="M31.9975 20.9507C31.899 15.1991 27.1527 10.5667 21.3122 10.5667L21.3132 10.5676L21.2524 21.5536L32 31.9401V20.9532L31.9975 20.9507Z" fill="white"/>
<path fill-rule="evenodd" clip-rule="evenodd" d="M20.0505 5.46945C14.7139 6.05983 10.5651 10.5359 10.5651 15.97V21.0128L10.5655 21.0131L10.7476 32L0 21.6135V10.5666V10.5065L0.000168172 10.5067C0.0327821 4.69849 4.8049 0 10.6869 0C14.7198 0 18.2309 2.20871 20.0505 5.46945Z" fill="white"/>
<path d="M59.1865 18.2744H56.6191V24H53.3965V8.35938H59.208C61.0557 8.35938 62.4808 8.77116 63.4834 9.59473C64.486 10.4183 64.9873 11.582 64.9873 13.0859C64.9873 14.153 64.7546 15.0446 64.2891 15.7607C63.8307 16.4697 63.1325 17.0355 62.1943 17.458L65.5781 23.8496V24H62.1191L59.1865 18.2744ZM56.6191 15.6641H59.2188C60.028 15.6641 60.6546 15.46 61.0986 15.0518C61.5426 14.6364 61.7646 14.0671 61.7646 13.3438C61.7646 12.6061 61.5534 12.026 61.1309 11.6035C60.7155 11.181 60.0745 10.9697 59.208 10.9697H56.6191V15.6641ZM72.5928 24.2148C70.8883 24.2148 69.499 23.6921 68.4248 22.6465C67.3577 21.6009 66.8242 20.208 66.8242 18.4678V18.167C66.8242 16.9997 67.0498 15.9577 67.501 15.041C67.9521 14.1172 68.5895 13.4082 69.4131 12.9141C70.2438 12.4128 71.1891 12.1621 72.249 12.1621C73.8389 12.1621 75.0885 12.6634 75.998 13.666C76.9147 14.6686 77.373 16.0902 77.373 17.9307V19.1982H69.9717C70.0719 19.9574 70.3727 20.5661 70.874 21.0244C71.3825 21.4827 72.0234 21.7119 72.7969 21.7119C73.9928 21.7119 74.9274 21.2786 75.6006 20.4121L77.126 22.1201C76.6605 22.779 76.0303 23.2946 75.2354 23.667C74.4404 24.0322 73.5596 24.2148 72.5928 24.2148ZM72.2383 14.6758C71.6224 14.6758 71.1211 14.8835 70.7344 15.2988C70.3548 15.7142 70.1113 16.3086 70.0039 17.082H74.3223V16.835C74.3079 16.1475 74.1217 15.6175 73.7637 15.2451C73.4056 14.8656 72.8971 14.6758 72.2383 14.6758ZM86.9336 9.90625C86.3177 9.83464 85.7448 9.79883 85.2148 9.79883C83.8112 9.79883 83.1094 10.3968 83.1094 11.5928V12.377H85.4189V14.6543H83.1094V24H79.9941V14.6543H78.2646V12.377H79.9941V11.4746C80.0085 10.1283 80.431 9.09342 81.2617 8.37012C82.0924 7.63965 83.2669 7.27441 84.7852 7.27441C85.8665 7.27441 87.6211 7.389 90.0488 7.61816V24H86.9336V9.90625ZM97.9873 24.2148C96.2829 24.2148 94.8936 23.6921 93.8193 22.6465C92.7523 21.6009 92.2188 20.208 92.2188 18.4678V18.167C92.2188 16.9997 92.4443 15.9577 92.8955 15.041C93.3467 14.1172 93.984 13.4082 94.8076 12.9141C95.6383 12.4128 96.5837 12.1621 97.6436 12.1621C99.2334 12.1621 100.483 12.6634 101.393 13.666C102.309 14.6686 102.768 16.0902 102.768 17.9307V19.1982H95.3662C95.4665 19.9574 95.7673 20.5661 96.2686 21.0244C96.777 21.4827 97.418 21.7119 98.1914 21.7119C99.3874 21.7119 100.322 21.2786 100.995 20.4121L102.521 22.1201C102.055 22.779 101.425 23.2946 100.63 23.667C99.835 24.0322 98.9541 24.2148 97.9873 24.2148ZM97.6328 14.6758C97.0169 14.6758 96.5156 14.8835 96.1289 15.2988C95.7493 15.7142 95.5059 16.3086 95.3984 17.082H99.7168V16.835C99.7025 16.1475 99.5163 15.6175 99.1582 15.2451C98.8001 14.8656 98.2917 14.6758 97.6328 14.6758ZM109.374 21.7119C109.947 21.7119 110.412 21.5544 110.771 21.2393C111.129 20.9242 111.315 20.5052 111.329 19.9824H114.24C114.233 20.7702 114.018 21.4935 113.596 22.1523C113.173 22.804 112.593 23.3125 111.855 23.6777C111.125 24.0358 110.316 24.2148 109.428 24.2148C107.766 24.2148 106.456 23.6885 105.496 22.6357C104.536 21.5758 104.057 20.1149 104.057 18.2529V18.0488C104.057 16.2585 104.533 14.8298 105.485 13.7627C106.438 12.6956 107.745 12.1621 109.406 12.1621C110.86 12.1621 112.024 12.5775 112.897 13.4082C113.778 14.2318 114.226 15.3311 114.24 16.7061H111.329C111.315 16.1045 111.129 15.6175 110.771 15.2451C110.412 14.8656 109.94 14.6758 109.353 14.6758C108.629 14.6758 108.081 14.9408 107.709 15.4707C107.344 15.9935 107.161 16.8457 107.161 18.0273V18.3496C107.161 19.5456 107.344 20.4049 107.709 20.9277C108.074 21.4505 108.629 21.7119 109.374 21.7119ZM119.729 9.51953V12.377H121.717V14.6543H119.729V20.4551C119.729 20.8848 119.812 21.1927 119.977 21.3789C120.141 21.5651 120.456 21.6582 120.922 21.6582C121.266 21.6582 121.57 21.6331 121.835 21.583V23.9355C121.226 24.1217 120.6 24.2148 119.955 24.2148C117.778 24.2148 116.668 23.1156 116.625 20.917V14.6543H114.928V12.377H116.625V9.51953H119.729Z" fill="white"/>
</svg>
