<svg width="48" height="48" viewBox="0 0 48 48" fill="none" xmlns="http://www.w3.org/2000/svg">
<g clip-path="url(#clip0)">
<path d="M0 17C0 7.61116 7.61116 0 17 0H31C40.3888 0 48 7.61116 48 17V31C48 40.3888 40.3888 48 31 48H17C7.61116 48 0 40.3888 0 31V17Z" fill="#FFF0A0"/>
<rect x="-20.5713" y="27" width="45.7143" height="6.42857" fill="#FF964A"/>
<path d="M25.1431 26.9999L39.4288 16.2856V22.7142L25.1431 33.4285V26.9999Z" fill="#FF964A"/>
<path d="M-6.28557 16.2856H39.4287L25.143 26.9999H-20.5713L-6.28557 16.2856Z" fill="#FFAB6D"/>
</g>
<defs>
<clipPath id="clip0">
<path d="M0 17C0 7.61116 7.61116 0 17 0H31C40.3888 0 48 7.61116 48 17V31C48 40.3888 40.3888 48 31 48H17C7.61116 48 0 40.3888 0 31V17Z" fill="white"/>
</clipPath>
</defs>
</svg>
